<svg width="24" height="24" viewBox="0 0 24 24" fill="none" xmlns="http://www.w3.org/2000/svg">
<path fill-rule="evenodd" clip-rule="evenodd" d="M2.59619 12.23C2.59619 7.04651 6.7984 2.84326 11.983 2.84326C17.1666 2.84326 21.3698 7.04646 21.3698 12.23C21.3698 17.4136 17.1666 21.6168 11.983 21.6168C6.7984 21.6168 2.59619 17.4136 2.59619 12.23ZM11.983 4.25128C7.57613 4.25128 4.00421 7.82404 4.00421 12.23C4.00421 16.636 7.57613 20.2088 11.983 20.2088C16.3889 20.2088 19.9617 16.636 19.9617 12.23C19.9617 7.82409 16.3889 4.25128 11.983 4.25128Z" fill="#515151"/>
<path fill-rule="evenodd" clip-rule="evenodd" d="M8.22803 10.3746C8.50355 10.1002 8.9493 10.1012 9.22364 10.3767L11.8166 12.9809C11.9083 13.073 12.0575 13.073 12.1492 12.9809L14.7422 10.3767C15.0165 10.1012 15.4623 10.1002 15.7378 10.3746C16.0133 10.6489 16.0143 11.0947 15.7399 11.3702L13.147 13.9744C12.5049 14.6192 11.4609 14.6192 10.8189 13.9744L8.22588 11.3702C7.95154 11.0947 7.9525 10.6489 8.22803 10.3746Z" fill="#515151"/>
</svg>
