<svg width="20" height="20" viewBox="0 0 20 20" fill="none" xmlns="http://www.w3.org/2000/svg">
<path fill-rule="evenodd" clip-rule="evenodd" d="M1.93677 10.1708C1.93677 5.72779 5.53866 2.125 9.98258 2.125C14.4256 2.125 18.0284 5.72774 18.0284 10.1708C18.0284 14.6139 14.4256 18.2166 9.98258 18.2166C5.53866 18.2166 1.93677 14.6138 1.93677 10.1708ZM9.98258 3.33187C6.20529 3.33187 3.14364 6.39424 3.14364 10.1708C3.14364 13.9474 6.20529 17.0098 9.98258 17.0098C13.7591 17.0098 16.8215 13.9473 16.8215 10.1708C16.8215 6.39428 13.7591 3.33187 9.98258 3.33187Z" fill="#515151"/>
<path fill-rule="evenodd" clip-rule="evenodd" d="M6.76384 8.58012C7.00001 8.34497 7.38208 8.3458 7.61723 8.58196L9.83978 10.8141C9.9184 10.8931 10.0462 10.8931 10.1249 10.8141L12.3474 8.58196C12.5826 8.3458 12.9646 8.34497 13.2008 8.58012C13.437 8.81527 13.4378 9.19734 13.2026 9.43351L10.9801 11.6657C10.4297 12.2184 9.53491 12.2184 8.98456 11.6657L6.762 9.43351C6.52686 9.19734 6.52768 8.81527 6.76384 8.58012Z" fill="#515151"/>
</svg>
