<svg width="20" height="20" viewBox="0 0 20 20" fill="none" xmlns="http://www.w3.org/2000/svg">
<path fill-rule="evenodd" clip-rule="evenodd" d="M2.23389 10.1708C2.23389 5.72779 5.83578 2.125 10.2797 2.125C14.7228 2.125 18.3255 5.72774 18.3255 10.1708C18.3255 14.6139 14.7228 18.2166 10.2797 18.2166C5.83578 18.2166 2.23389 14.6138 2.23389 10.1708ZM10.2797 3.33187C6.5024 3.33187 3.44076 6.39424 3.44076 10.1708C3.44076 13.9474 6.5024 17.0098 10.2797 17.0098C14.0562 17.0098 17.1186 13.9473 17.1186 10.1708C17.1186 6.39428 14.0562 3.33187 10.2797 3.33187Z" fill="#515151"/>
<path fill-rule="evenodd" clip-rule="evenodd" d="M7.06096 8.58012C7.29713 8.34497 7.6792 8.3458 7.91435 8.58196L10.1369 10.8141C10.2155 10.8931 10.3434 10.8931 10.422 10.8141L12.6445 8.58196C12.8797 8.3458 13.2617 8.34497 13.4979 8.58012C13.7341 8.81527 13.7349 9.19734 13.4998 9.43351L11.2772 11.6657C10.7268 12.2184 9.83203 12.2184 9.28168 11.6657L7.05912 9.43351C6.82398 9.19734 6.8248 8.81527 7.06096 8.58012Z" fill="#515151"/>
</svg>
